<svg xmlns="http://www.w3.org/2000/svg" xmlns:xlink="http://www.w3.org/1999/xlink" width="192" height="60" preserveAspectRatio="xMidYMid meet" version="1.0" viewBox="0 0 144 45" zoomAndPan="magnify"><path fill="none" stroke="#e5ccfd" stroke-linecap="butt" stroke-linejoin="miter" stroke-miterlimit="4" stroke-opacity="1" stroke-width="5.51" d="M 137.069934 -11.082981 L 92.179975 -11.082981 C 74.369158 -11.082981 59.992087 3.322006 59.992087 20.90949 L 59.992087 101.616501 C 59.992087 119.455235 74.369158 133.804389 92.179975 133.804389 L 137.069934 133.804389 L 137.069934 106.02733 L 92.179975 106.02733 C 89.72331 106.02733 87.797062 104.101082 87.797062 101.616501 L 87.797062 20.90949 C 87.797062 18.620326 89.72331 16.526578 92.179975 16.526578 L 137.069934 16.526578 Z M 174.394484 -11.278397 L 146.617426 -11.278397 L 146.617426 133.804389 L 174.394484 133.804389 Z M 236.285679 -11.082981 L 183.969892 -11.082981 L 183.969892 133.804389 L 236.285679 133.804389 C 254.124412 133.804389 268.473566 119.259819 268.473566 101.616501 L 268.473566 21.104907 C 268.473566 3.322006 254.124412 -11.082981 236.285679 -11.082981 Z M 240.919841 101.616501 C 240.919841 104.101082 238.77026 106.02733 236.285679 106.02733 L 211.774867 106.02733 L 211.774867 16.526578 L 236.285679 16.526578 C 238.77026 16.526578 240.919841 18.620326 240.919841 21.104907 Z M 330.364761 -10.664231 L 310.264779 -10.664231 C 292.621461 -10.664231 278.076891 3.684923 278.076891 21.523656 L 278.076891 102.007334 C 278.076891 119.818151 292.621461 134.195222 310.264779 134.195222 L 330.364761 134.195222 C 348.203494 134.195222 362.580565 119.818151 362.580565 102.007334 L 362.580565 21.523656 C 362.580565 3.684923 348.203494 -10.664231 330.364761 -10.664231 Z M 334.998923 102.007334 C 334.998923 104.463999 332.849342 106.390247 330.364761 106.390247 L 310.264779 106.390247 C 307.780198 106.390247 305.853949 104.463999 305.853949 102.007334 L 305.853949 21.523656 C 305.853949 19.011159 307.780198 16.889494 310.264779 16.889494 L 330.364761 16.889494 C 332.849342 16.889494 334.998923 19.011159 334.998923 21.523656 Z M 403.980944 71.717778 C 430.222587 71.717778 449.205904 54.465293 449.205904 30.512815 C 449.205904 7.900335 432.316335 -8.989233 408.559273 -10.887564 L 372.155973 -10.887564 L 372.155973 134.195222 L 399.960948 134.195222 L 399.960948 71.717778 Z M 400.128448 16.694077 L 403.980944 16.694077 C 406.828442 16.694077 421.428845 17.50366 421.428845 30.512815 C 421.428845 42.963637 408.196357 43.94072 403.980944 43.94072 L 400.128448 43.94072 Z M 400.128448 16.694077" transform="matrix(0.139925, 0, 0, 0.139925, 17.062609, 19.003917)"/><path fill="none" stroke="#e5ccfd" stroke-linecap="butt" stroke-linejoin="miter" stroke-miterlimit="4" stroke-opacity="1" stroke-width="6.588" d="M 35.845349 105.084589 L 65.356047 105.084589 L 70.925187 133.810632 L 99.096229 133.810632 L 71.307945 -11.274066 L 57.126734 -11.274066 L 56.7057 -11.082686 L 50.58156 -11.082686 L 50.390181 -11.274066 L 36.20897 -11.274066 L 36.20897 -11.082686 L -0.00000643035 133.810632 L 28.726036 133.810632 Z M 52.495354 37.986983 L 59.978287 77.296305 L 42.715868 77.296305 Z M 52.495354 37.986983" transform="matrix(0.20411, 0, 0, 0.20411, 4.500001, 10.367559)"/></svg>